<svg xmlns="http://www.w3.org/2000/svg" width="38" height="44">
    <path fill="#EC0000" fill-rule="evenodd" d="M32.999 44H5.001A5.007 5.007 0 0 1 0 38.999V11.001A5.006 5.006 0 0 1 5.001 6h3V1.001a1 1 0 1 1 2 0V6h17.998V1.001a1 1 0 1 1 2.001 0V6h2.999A5.007 5.007 0 0 1 38 11.001v27.998A5.007 5.007 0 0 1 32.999 44zm3-32.999a3.004 3.004 0 0 0-3-3.001H30v3a1 1 0 0 1-2.001 0V8H10.001v3a1 1 0 0 1-2 0V8h-3c-1.654 0-3 1.346-3 3.001V15h33.998v-3.999zm0 6H2.001v21.998c0 1.654 1.346 3 3 3h27.998c1.654 0 3-1.346 3-3V17.001zm-12.711 7.383a30.545 30.545 0 0 0-3.142.97c0-.387.018-.773.049-1.167.035-.394.088-.756.162-1.089a12.886 12.886 0 0 1 1.592-.566 18.876 18.876 0 0 1 3.786-.699v14.782h-2.447V24.384zm-6.709 12.024c-.861.358-1.919.541-3.181.544a12.695 12.695 0 0 1-2.994-.358c0-.222.014-.457.039-.707.024-.249.056-.495.091-.738.039-.242.081-.464.123-.664.408.106.833.186 1.28.239.446.053.874.077 1.293.077 1.152.004 2.021-.189 2.611-.58.59-.386.886-.983.889-1.782 0-.766-.274-1.332-.822-1.694-.549-.365-1.371-.544-2.468-.541h-1.897v-2.087h1.666c.671 0 1.24-.082 1.711-.247.471-.165.83-.411 1.075-.738.25-.326.377-.738.377-1.23 0-.411-.099-.769-.295-1.079-.197-.309-.5-.552-.907-.724-.408-.172-.928-.26-1.561-.263-.516 0-1.022.045-1.514.14a7.511 7.511 0 0 0-1.438.429c0-.134.007-.316.021-.555.018-.236.039-.499.07-.784.032-.285.07-.562.12-.833.285-.126.594-.232.928-.316a8.75 8.75 0 0 1 2.087-.253c1.016.003 1.888.158 2.612.464.727.309 1.282.748 1.673 1.317.386.573.583 1.259.587 2.057a4.01 4.01 0 0 1-.292 1.528 3.702 3.702 0 0 1-.808 1.21 4.03 4.03 0 0 1-1.22.826c.58.157 1.072.386 1.487.678.411.295.724.668.945 1.121.218.453.327 1.001.331 1.637 0 .918-.222 1.709-.665 2.373-.443.665-1.093 1.174-1.954 1.533z"/>
</svg>
