<svg xmlns="http://www.w3.org/2000/svg" width="44" height="44">
    <path fill="#EC0000" fill-rule="evenodd" d="M22 44C9.869 44 0 34.131 0 22.001 0 9.87 9.869 0 22 0s21.999 9.87 21.999 22.001C43.999 34.131 34.131 44 22 44zm0-41.999c-11.028 0-19.999 8.972-19.999 20 0 11.026 8.971 19.998 19.999 19.998 11.027 0 19.999-8.972 19.999-19.998 0-11.028-8.972-20-19.999-20zm10.138 31.742c-.755.518-1.669.774-2.756.78-1.106-.006-2.042-.262-2.804-.78-.763-.511-1.338-1.25-1.734-2.222-.395-.971-.593-2.146-.593-3.524.012-2.101.454-3.694 1.338-4.782.878-1.087 2.146-1.635 3.793-1.64 1.634.005 2.879.553 3.745 1.64.867 1.088 1.309 2.681 1.315 4.782 0 1.378-.198 2.553-.587 3.524-.396.972-.966 1.711-1.717 2.222zm-.785-9.038c-.413-.74-1.07-1.106-1.971-1.106-.902-.006-1.565.361-1.99 1.088-.425.733-.634 1.843-.629 3.345-.005 1.494.199 2.605.617 3.327.413.715 1.082 1.075 2.002 1.07.901.005 1.558-.355 1.971-1.07.413-.722.617-1.833.611-3.327.006-1.484-.198-2.595-.611-3.327zM15.88 34.163c-.436.034-.884.063-1.331.081l12.18-24.396a17.74 17.74 0 0 1 2.688-.21L17.236 33.999c-.465.07-.919.123-1.356.164zm1.6-12.669c-.756.517-1.675.773-2.757.778-1.105-.005-2.047-.261-2.815-.778-.762-.512-1.35-1.258-1.745-2.229-.402-.965-.606-2.14-.606-3.518.006-2.083.455-3.677 1.339-4.77.884-1.095 2.163-1.646 3.827-1.652 1.076 0 1.989.25 2.74.738.75.494 1.326 1.215 1.721 2.17.396.953.594 2.123.599 3.514 0 1.378-.197 2.553-.593 3.518-.389.971-.96 1.717-1.71 2.229zm-.785-9.023c-.413-.727-1.07-1.093-1.972-1.087-.919-.006-1.594.36-2.019 1.087-.43.722-.639 1.827-.634 3.31-.005 1.495.204 2.612.634 3.339.425.733 1.1 1.094 2.019 1.094.902.006 1.559-.356 1.972-1.077.413-.726.616-1.844.61-3.356.006-1.483-.197-2.588-.61-3.31z"/>
</svg>
