<svg xmlns="http://www.w3.org/2000/svg" width="42" height="44">
    <path fill="#EC0000" fill-rule="evenodd" d="M41.874 27.374L32.467 43.5c-.187.321-.527.5-.876.5-.172 0-.346-.043-.505-.134L3.405 28.053a.995.995 0 0 1-.37-1.368l3.18-5.451-5.707-3.261a.993.993 0 0 1-.37-1.367L9.546.481a1.017 1.017 0 0 1 1.381-.367l27.68 15.814c.232.133.402.351.471.608a.988.988 0 0 1-.101.759l-3.18 5.451 5.707 3.26c.232.133.402.352.471.608a.99.99 0 0 1-.101.76zM36.72 17.162L10.792 2.348 2.395 16.74l4.831 2.76 5.216-8.941a1.016 1.016 0 0 1 1.381-.366l20.222 11.552 2.675-4.583zm-2.809 6.818h-.001l-.001-.001-20.221-11.552-5.215 8.939-.001.002-.001.002-3.179 5.449 25.929 14.813 8.396-14.392-5.706-3.26zm-11.457 7.431c-2.442 0-4.428-1.966-4.428-4.382 0-2.416 1.986-4.381 4.428-4.381s4.429 1.965 4.429 4.381c0 2.416-1.987 4.382-4.429 4.382zm0-6.761c-1.327 0-2.406 1.067-2.406 2.379 0 1.313 1.079 2.38 2.406 2.38 1.327 0 2.406-1.068 2.406-2.38 0-1.312-1.079-2.379-2.406-2.379z"/>
</svg>
