<?xml version="1.0" encoding="utf-8"?>
<!-- Generator: Adobe Illustrator 23.0.1, SVG Export Plug-In . SVG Version: 6.00 Build 0)  -->
<svg version="1.1" id="Tel" xmlns="http://www.w3.org/2000/svg" xmlns:xlink="http://www.w3.org/1999/xlink" x="0px" y="0px"
	 viewBox="0 0 23 32" style="enable-background:new 0 0 23 32;" xml:space="preserve">
<style type="text/css">
	.st0{fill-rule:evenodd;clip-rule:evenodd;}
</style>
<path id="tel-a" class="st0" d="M19,31.8L19,31.8l-14.6,0c-2,0-3.5-1.6-3.5-3.5V3.7c0-1,0.4-1.8,1-2.5l0,0c0.6-0.6,1.5-1,2.5-1
	l14.6,0v0c1,0,1.9,0.4,2.5,1c0.6,0.6,1,1.5,1,2.5v24.6C22.6,30.3,21,31.8,19,31.8z M21.5,3.7c0-0.7-0.3-1.3-0.7-1.7
	c-0.4-0.4-1.1-0.7-1.7-0.7v0l-14.6,0C3.8,1.2,3.2,1.5,2.7,2l0,0l0,0C2.3,2.4,2,3,2,3.7v24.6c0,1.3,1.1,2.4,2.5,2.4l14.6,0v0
	c1.4,0,2.5-1.1,2.5-2.4V3.7z M14.3,28.1H9.1c-0.3,0-0.5-0.2-0.5-0.5c0-0.3,0.2-0.5,0.5-0.5h5.2c0.3,0,0.5,0.2,0.5,0.5
	C14.9,27.9,14.6,28.1,14.3,28.1z" fill="#ffffff"/>
</svg>
