<svg id="Warstwa_1" data-name="Warstwa 1" xmlns="http://www.w3.org/2000/svg" viewBox="0 0 44 32"><defs><style>.cls-1{fill:#ec0000;}</style></defs><title>ico_doradca</title><path class="cls-1" d="M44,27.5A4.51,4.51,0,0,1,39.5,32H4.5a4.51,4.51,0,0,1-3.18-1.32l-.06-.07A4.46,4.46,0,0,1,0,27.5V24a1,1,0,0,1,1-1H4V4A4,4,0,0,1,5.18,1.18h0A4,4,0,0,1,8,0H36a4,4,0,0,1,2.82,1.18h0A4,4,0,0,1,40,4V23h3a1,1,0,0,1,1,1v3.5ZM38,4a2,2,0,0,0-.59-1.41h0A2,2,0,0,0,36,2H8a2,2,0,0,0-1.41.59h0A2,2,0,0,0,6,4V23H38Zm4,23.5V25H26a1,1,0,0,1-1,1H19a1,1,0,0,1-1-1H2v2.5a2.47,2.47,0,0,0,.69,1.72l.05,0A2.47,2.47,0,0,0,4.5,30h35a2.45,2.45,0,0,0,1.76-.74A2.47,2.47,0,0,0,42,27.5ZM13.77,18.15a6.5,6.5,0,0,1,3.35-.9,8.68,8.68,0,0,1,2.38.41c.77.24,1.44.5,1.95.71l0,0a1.49,1.49,0,0,0,1,0,18.55,18.55,0,0,1,1.93-.71,8.41,8.41,0,0,1,2.4-.42,6.78,6.78,0,0,1,3.44.88,5,5,0,0,1,2.15,2.54,1,1,0,0,1-1.88.68,2.91,2.91,0,0,0-1.29-1.5,4.79,4.79,0,0,0-2.42-.6,6.8,6.8,0,0,0-1.82.33c-.68.21-1.29.45-1.76.64a3.37,3.37,0,0,1-2.57,0c-.59-.24-1.18-.46-1.78-.65a6.36,6.36,0,0,0-1.8-.33,4.6,4.6,0,0,0-2.33.62,3.2,3.2,0,0,0-1.36,1.5,1,1,0,0,1-1.86-.74A5.2,5.2,0,0,1,13.77,18.15ZM27,8.62l-.49,4v0A4.4,4.4,0,0,1,22,16.5a4.44,4.44,0,0,1-3-1.07,4.56,4.56,0,0,1-1.49-2.75.13.13,0,0,0,0-.06l-.49-4h0A4.46,4.46,0,0,1,17,8a4.19,4.19,0,0,1,1.31-3,5.37,5.37,0,0,1,2.85-1.42,5,5,0,0,1,1.67,0h0A5.43,5.43,0,0,1,25.69,5,4.15,4.15,0,0,1,27,8a4.22,4.22,0,0,1,0,.6ZM24.3,6.42a3.41,3.41,0,0,0-1.79-.88h0a2.92,2.92,0,0,0-.51,0,3.33,3.33,0,0,0-2.3.92A2.22,2.22,0,0,0,19,8a2,2,0,0,0,0,.35v0h0l.5,4a2.54,2.54,0,0,0,.81,1.55,2.49,2.49,0,0,0,1.66.57,2.55,2.55,0,0,0,1.66-.57,2.58,2.58,0,0,0,.82-1.56l.49-4A2.56,2.56,0,0,0,25,8,2.22,2.22,0,0,0,24.3,6.42Z"/></svg>