<svg id="Warstwa_1" data-name="Warstwa 1" xmlns="http://www.w3.org/2000/svg" viewBox="0 0 44 44"><defs><style>.cls-1{fill:#ec0000;}</style></defs><title>ico_infolinia</title><path class="cls-1" d="M29.05,34V30.07H22c0-.24,0-.45,0-.63a4.12,4.12,0,0,1,0-.51,3.8,3.8,0,0,1,.05-.46A26.15,26.15,0,0,1,23.46,26c.53-.88,1.09-1.73,1.68-2.56A45.69,45.69,0,0,1,29,18.7l.83-.11a7.71,7.71,0,0,1,1,0v9.9H33c0,.37,0,.73-.1,1.09a3.29,3.29,0,0,1-.1.53h-2V34Zm0-13.09c-.67.78-1.31,1.59-1.93,2.41S25.93,25,25.38,25.85s-1,1.71-1.49,2.6h5.16Zm15,7a8.34,8.34,0,0,1-.47,2.84c-.66,1.82-2.37,3.93-6.59,4.21a11,11,0,0,1-.42,2.55A6.56,6.56,0,0,1,32.1,42a12.23,12.23,0,0,1-3.9.55h-.67A2.39,2.39,0,0,1,25.26,44H19.4A2.31,2.31,0,0,1,17,41.79v-.58A2.31,2.31,0,0,1,19.4,39h5.86a2.39,2.39,0,0,1,2.27,1.5h.67a10.53,10.53,0,0,0,3.26-.44,5,5,0,0,0,2-1.21,4.87,4.87,0,0,0,1.13-2A9.9,9.9,0,0,0,35,34V15A13,13,0,1,0,9,15V34a1,1,0,0,1-1,1H8C3.05,35,1.17,32.68.47,30.73A8.3,8.3,0,0,1,0,27.89V26.11a8.46,8.46,0,0,1,.47-2.84C1.39,20.72,3.76,19.21,7,19V15A15,15,0,0,1,22,0h0A15,15,0,0,1,37,15v4c3.24.18,5.61,1.69,6.53,4.24A8.46,8.46,0,0,1,44,26.11ZM25.67,41.21a.42.42,0,0,0-.41-.21H19.4c-.25,0-.41.15-.41.21v.58c0,.05.14.21.41.21h5.86a.42.42,0,0,0,.41-.21ZM7,21c-1.59.1-3.83.67-4.65,2.93A6.39,6.39,0,0,0,2,26.11v1.78a6.5,6.5,0,0,0,.35,2.17C3,31.81,4.52,32.77,7,33Zm34.65,2.92C40.83,21.69,38.59,21.12,37,21V33c2.48-.19,4-1.15,4.65-2.91A6.35,6.35,0,0,0,42,27.89V26.11A6.58,6.58,0,0,0,41.65,23.94ZM13.2,29.76a9.44,9.44,0,0,1,1.34-1.43A18.32,18.32,0,0,1,16.16,27a9.85,9.85,0,0,0,1.41-1.25,4.87,4.87,0,0,0,.9-1.36,4,4,0,0,0,.32-1.6,2.56,2.56,0,0,0-.85-2.08A3.78,3.78,0,0,0,15.43,20a7.46,7.46,0,0,0-3.34.79,9,9,0,0,1,.16-1.72,7.35,7.35,0,0,1,1.6-.54,8.59,8.59,0,0,1,1.82-.19,7.14,7.14,0,0,1,2.25.32,4.11,4.11,0,0,1,1.56.9A3.68,3.68,0,0,1,20.4,21a5,5,0,0,1,.29,1.75,5.2,5.2,0,0,1-.43,2.11A6.62,6.62,0,0,1,19,26.64a15.73,15.73,0,0,1-1.95,1.7c-.59.44-1.12.86-1.57,1.27a6.75,6.75,0,0,0-1.13,1.26,4,4,0,0,0-.6,1.45H21c0,.16,0,.33,0,.53l-.06.6c0,.19-.06.37-.1.55H12v-.64a5.47,5.47,0,0,1,.34-2A6.1,6.1,0,0,1,13.2,29.76Z" transform="translate(0 0)"/></svg>