<svg id="Warstwa_1" data-name="Warstwa 1" xmlns="http://www.w3.org/2000/svg" viewBox="0 0 44 44"><defs><style>.cls-1{fill:#ec0000;}</style></defs><title>ico_oddzial</title><path class="cls-1" d="M43,24H18.53L18,25.21V43a1,1,0,0,1-1,1H8a1,1,0,0,1-1-1V25.22L6.47,24H1a1,1,0,0,1,0-2H5.56a6.56,6.56,0,0,1-.33-.94A6.81,6.81,0,0,1,5,19.32H5V15H5a4.17,4.17,0,0,1,1.29-3l.06-.05a4.64,4.64,0,0,1,3.13-1,6,6,0,0,1,1,.07c.28,0,.56.1.91.18l.39.11,0,0a2.54,2.54,0,0,0,.6.12,2.48,2.48,0,0,0,.49-.11h0l.11,0h0l.51-.13c.41-.08.83-.15,1.25-.19l.75,0A4.68,4.68,0,0,1,18.68,12,4,4,0,0,1,20,14.94v0h0v4.34a6.87,6.87,0,0,1-.23,1.74,6.56,6.56,0,0,1-.33.94h4.81A5.75,5.75,0,0,0,25,19.32h0V15h0a4.17,4.17,0,0,1,1.29-3l.06-.05a4.63,4.63,0,0,1,3.12-1,5.9,5.9,0,0,1,1,.07c.29,0,.57.1.92.18l.39.11,0,0a2.54,2.54,0,0,0,.6.12,2.48,2.48,0,0,0,.49-.11h0l.11,0h0l.51-.13c.41-.08.83-.15,1.25-.19l.74,0A4.69,4.69,0,0,1,38.68,12,4,4,0,0,1,40,14.94v0h0v4.34a6.81,6.81,0,0,1-.23,1.74,6.16,6.16,0,0,1-.33.94H43a1,1,0,0,1,0,2ZM17.36,13.49a2.73,2.73,0,0,0-1.82-.59,6.6,6.6,0,0,0-1.17.1c-.28.05-.55.11-.83.18h0l-.07,0h-.05a3.38,3.38,0,0,1-1,.18,3.63,3.63,0,0,1-1.15-.2h-.06l-.3-.09a6.1,6.1,0,0,0-.72-.14,4,4,0,0,0-.69,0,2.83,2.83,0,0,0-1.81.5l0,0A2.27,2.27,0,0,0,7,15.09v4.23H7a4.79,4.79,0,0,0,.6,2.33s.05.09.07.14L8.91,24.6h0A.9.9,0,0,1,9,25V42h2.5V29a1,1,0,0,1,2,0V42H16V25h0a.78.78,0,0,1,.08-.4l1.25-2.81h0a.36.36,0,0,1,0-.09A4.86,4.86,0,0,0,18,19.32V15h0A2.07,2.07,0,0,0,17.36,13.49Zm20,8.3h0l.05-.09A4.86,4.86,0,0,0,38,19.32V15h0a2,2,0,0,0-.65-1.49,2.69,2.69,0,0,0-1.82-.59,6.57,6.57,0,0,0-1.16.1c-.28.05-.56.11-.83.18h0l-.07,0h0a3.44,3.44,0,0,1-1,.18,3.75,3.75,0,0,1-1.16-.2h0l-.3-.09a5.88,5.88,0,0,0-.73-.14,3.82,3.82,0,0,0-.68,0,2.83,2.83,0,0,0-1.81.5l-.05,0A2.27,2.27,0,0,0,27,15.09v4.23h0A6.48,6.48,0,0,1,26.44,22h10.8ZM36.25,4l-.41,2.69v0A4.26,4.26,0,0,1,34.75,9a3.09,3.09,0,0,1-4.5,0,4.29,4.29,0,0,1-1.09-2.32h0L28.75,4a.28.28,0,0,1,0-.09,3.15,3.15,0,0,1,0-.44,3.29,3.29,0,0,1,1-2.35A4,4,0,0,1,31.89.05a3.75,3.75,0,0,1,1.22,0,4,4,0,0,1,2.18,1.09,3.26,3.26,0,0,1,1,2.35h0a3.49,3.49,0,0,1,0,.53ZM33.88,2.56A2,2,0,0,0,32.19,2a2,2,0,0,0-1.07.54,1.29,1.29,0,0,0-.4,1.1v.06l.41,2.69h0a2.22,2.22,0,0,0,.55,1.22,1.09,1.09,0,0,0,1.62,0,2.19,2.19,0,0,0,.54-1.2v0l.41-2.69h0a1.55,1.55,0,0,0,0-.23h0A1.3,1.3,0,0,0,33.88,2.56ZM16.25,4l-.41,2.69v0A4.26,4.26,0,0,1,14.75,9a3.09,3.09,0,0,1-4.5,0A4.29,4.29,0,0,1,9.16,6.71h0L8.75,4s0-.06,0-.09a3.15,3.15,0,0,1,0-.44,3.29,3.29,0,0,1,1-2.35A4,4,0,0,1,11.89.05a4.55,4.55,0,0,1,.61,0,4.55,4.55,0,0,1,.61.05,4,4,0,0,1,2.18,1.09,3.26,3.26,0,0,1,1,2.35h0a3.49,3.49,0,0,1,0,.53ZM13.88,2.56A1.94,1.94,0,0,0,12.2,2a2,2,0,0,0-1.08.54,1.29,1.29,0,0,0-.4,1.1v.06l.41,2.69h0a2.22,2.22,0,0,0,.55,1.22,1.09,1.09,0,0,0,1.62,0,2.27,2.27,0,0,0,.55-1.2v0l.41-2.69h0a1.55,1.55,0,0,0,0-.23h0A1.3,1.3,0,0,0,13.88,2.56Z" transform="translate(0)"/></svg>