<?xml version="1.0" encoding="utf-8"?>
<!-- Generator: Adobe Illustrator 23.0.1, SVG Export Plug-In . SVG Version: 6.00 Build 0)  -->
<svg version="1.1" id="Doradca" xmlns="http://www.w3.org/2000/svg" xmlns:xlink="http://www.w3.org/1999/xlink" x="0px" y="0px"
	 viewBox="0 0 32 24" style="enable-background:new 0 0 32 24;" xml:space="preserve">
<style type="text/css">
	.st0{fill-rule:evenodd;clip-rule:evenodd;}
</style>
<path id="doradca-a" class="st0" d="M30.9,22.8C30.9,22.8,30.8,22.8,30.9,22.8c-0.5,0.6-1.3,0.9-2,0.9l0,0h-26l0,0
	c-0.8,0-1.5-0.3-2-0.8s-0.8-1.2-0.8-2l0,0V18l0,0c0-0.3,0.2-0.5,0.5-0.5h2V3c0-0.7,0.3-1.4,0.8-1.9s1.1-0.8,1.9-0.8l0,0h21.2l0,0
	c0.7,0,1.4,0.3,1.9,0.8l0,0c0.5,0.5,0.8,1.2,0.8,1.9l0,0v14.4h2l0,0c0.3,0,0.5,0.2,0.5,0.5v2.8l0,0C31.7,21.6,31.4,22.3,30.9,22.8z
	 M27.6,1.9L27.6,1.9c-0.3-0.3-0.7-0.5-1.1-0.5l0,0H5.3l0,0c-0.4,0-0.8,0.2-1.1,0.5C3.8,2.2,3.6,2.6,3.6,3v14.4H28V3l0,0
	C28,2.6,27.9,2.2,27.6,1.9z M30.6,18.5h-12v0.3c0,0.3-0.2,0.5-0.5,0.5l0,0h-4.4c-0.3,0-0.5-0.2-0.5-0.5l0,0v-0.3h-12v2.3l0,0
	c0,0.5,0.2,0.9,0.5,1.3c0.3,0.3,0.8,0.5,1.2,0.5l0,0h26l0,0c0.5,0,0.9-0.2,1.2-0.5l0,0c0.3-0.3,0.5-0.8,0.5-1.2l0,0
	C30.6,20.9,30.6,18.5,30.6,18.5z M22.8,16.1c-0.3,0.1-0.6,0-0.7-0.3c-0.2-0.5-0.5-0.9-1-1.2s-1.1-0.5-1.8-0.5
	c-0.4,0-0.8,0.1-1.1,0.2c-0.5,0.1-1.1,0.3-1.5,0.5c-0.3,0.1-0.6,0.2-0.9,0.2c-0.3,0-0.6-0.1-0.8-0.2l0,0c-0.3-0.1-0.8-0.3-1.3-0.4
	c-0.5-0.1-0.9-0.2-1.3-0.2l0,0c-0.7,0-1.3,0.2-1.7,0.5c-0.5,0.3-0.9,0.7-1,1.2c-0.1,0.3-0.4,0.4-0.7,0.3s-0.4-0.4-0.3-0.7
	c0.3-0.7,0.8-1.3,1.5-1.7s1.5-0.6,2.3-0.6l0,0c0.5,0,1.1,0.1,1.6,0.3c0.5,0.1,1,0.3,1.4,0.5l0,0c0.1,0.1,0.3,0.1,0.4,0.1
	c0.1,0,0.3,0,0.4-0.1c0.4-0.2,1-0.4,1.6-0.6c0.5-0.1,0.9-0.2,1.4-0.2c0.9,0,1.7,0.2,2.4,0.6c0.7,0.4,1.2,1,1.5,1.7
	C23.2,15.7,23.1,16,22.8,16.1z M19.2,6.6l-0.4,2.9l0,0c-0.1,0.8-0.5,1.4-1,1.9s-1.2,0.7-2,0.7c-0.8,0-1.5-0.3-2-0.7
	c-0.5-0.5-0.9-1.1-1-1.9l0,0l0,0l0,0l-0.4-2.9l0,0c0-0.2,0-0.3,0-0.4l0,0c0-0.8,0.3-1.5,0.9-2c0.5-0.5,1.2-0.9,2-1
	c0.2,0,0.4,0,0.6,0s0.4,0,0.6,0c0.7,0.1,1.4,0.5,2,1l0,0c0.3,0.3,0.5,0.6,0.6,0.9s0.1,0.6,0.1,0.9C19.2,6.3,19.2,6.5,19.2,6.6
	L19.2,6.6z M17.6,4.9L17.6,4.9L17.6,4.9c-0.4-0.4-0.9-0.6-1.4-0.7c-0.1,0-0.3,0-0.4,0c-0.1,0-0.3,0-0.4,0c-0.5,0.1-1,0.3-1.4,0.7
	c-0.3,0.3-0.6,0.8-0.6,1.3l0,0c0,0.1,0,0.2,0,0.3l0,0l0,0l0.4,2.9c0.1,0.5,0.3,0.9,0.7,1.2c0.3,0.3,0.8,0.5,1.3,0.5s1-0.2,1.3-0.5
	s0.6-0.7,0.7-1.2l0.4-2.9c0,0,0,0,0-0.1s0-0.2,0-0.2l0,0C18.2,5.7,18,5.2,17.6,4.9z"/>
</svg>
