<svg id="Doradca" xmlns="http://www.w3.org/2000/svg" xmlns:xlink="http://www.w3.org/1999/xlink" viewBox="0 0 41.67 41.67"><defs><style>.cls-1,.cls-2{fill:none;}.cls-1{clip-rule:evenodd;}.cls-3{clip-path:url(#clip-path);}.cls-4{isolation:isolate;}.cls-5{clip-path:url(#clip-path-2);}.cls-6{clip-path:url(#clip-path-3);}</style><clipPath id="clip-path" transform="translate(4.83 4.83)"><path class="cls-1" d="M10.17,2.45a1.07,1.07,0,0,0-.34-.76A1.65,1.65,0,0,0,9,1.27H9a1.23,1.23,0,0,0-.27,0,1.27,1.27,0,0,0-.28,0,1.65,1.65,0,0,0-.88.42,1.07,1.07,0,0,0-.34.76.9.9,0,0,0,0,.18h0l.29,1.85a.43.43,0,0,1,0,0,1.69,1.69,0,0,0,.44.94,1,1,0,0,0,.74.31h0a1,1,0,0,0,.71-.29l0,0a1.72,1.72,0,0,0,.44-.94h0l.3-1.87v0a1.09,1.09,0,0,0,0-.18Zm1.05.35v0l-.3,1.87h0a2.77,2.77,0,0,1-.75,1.54l0,0a2.06,2.06,0,0,1-1.46.6h0a2.1,2.1,0,0,1-1.5-.62,2.77,2.77,0,0,1-.75-1.54v0L6.13,2.8h0a2.16,2.16,0,0,1,0-.35A2.11,2.11,0,0,1,6.77.92,2.8,2.8,0,0,1,8.23.2a3.4,3.4,0,0,1,.45,0l.44,0h0a2.8,2.8,0,0,1,1.46.72,2.11,2.11,0,0,1,.67,1.53h0A2,2,0,0,1,11.22,2.8Zm13.44-.35a1.07,1.07,0,0,0-.34-.76,1.62,1.62,0,0,0-.88-.42h0a1.83,1.83,0,0,0-.54,0h0a1.65,1.65,0,0,0-.88.42,1.12,1.12,0,0,0-.34.77h0a.88.88,0,0,0,0,.17L22,4.48a.07.07,0,0,1,0,0,1.75,1.75,0,0,0,.44.94,1,1,0,0,0,.74.31h0a1,1,0,0,0,.73-.31h0a1.69,1.69,0,0,0,.44-.94h0l.3-1.87v0a1.09,1.09,0,0,0,0-.18Zm1.05.35v0l-.3,1.87h0a2.8,2.8,0,0,1-.75,1.54h0a2.07,2.07,0,0,1-1.49.62h0a2.12,2.12,0,0,1-1.5-.63,2.77,2.77,0,0,1-.75-1.54v0l-.3-1.86a2.14,2.14,0,0,1,0-.34h0A2.14,2.14,0,0,1,21.26.92,2.8,2.8,0,0,1,22.72.2h0a3.52,3.52,0,0,1,.45,0l.44,0h0a2.8,2.8,0,0,1,1.46.72,2.11,2.11,0,0,1,.67,1.53h0A2,2,0,0,1,25.71,2.8ZM27.53,11A1.7,1.7,0,0,0,27,9.74a2.28,2.28,0,0,0-1.49-.48h0l-.45,0-.45.06-.32.06L24,9.47h0l-.11,0h0a2.35,2.35,0,0,1-.68.12,2.94,2.94,0,0,1-.83-.14l-.25-.07a5.3,5.3,0,0,0-.62-.11c-.22,0-.43,0-.64,0h0a2,2,0,0,0-1.37.4A1.9,1.9,0,0,0,19,11v3.49h0a4.59,4.59,0,0,1-.16,1.22,3.56,3.56,0,0,1-.18.52h8.47a4,4,0,0,0,.33-.8,3.79,3.79,0,0,0,.12-.94Zm-15-1.25A2.28,2.28,0,0,0,11,9.26h0l-.44,0-.46.06L9.8,9.4l-.33.07h0l-.09,0h0a2.5,2.5,0,0,1-.7.12,2.94,2.94,0,0,1-.83-.14l-.24-.07h0c-.22-.05-.4-.09-.56-.11a4.12,4.12,0,0,0-.54,0h0A2.26,2.26,0,0,0,5,9.71,1.82,1.82,0,0,0,4.47,11v3.09h0a3.73,3.73,0,0,0,.12.94A3.78,3.78,0,0,0,5,16l0,0,.3.61h0L6,18.14l.06.12V30.75H8.13V21.19a.54.54,0,0,1,.54-.54.54.54,0,0,1,.54.54v9.56h2.23V18.26l.05-.12.75-1.54h0l.3-.61,0,0a3.4,3.4,0,0,0,.36-.88,3.68,3.68,0,0,0,.13-.94V11h0A1.7,1.7,0,0,0,12.5,9.74Zm18.79,7.61H13.07l-.55,1.15V31.83H5V18.5l-.56-1.15H.71a.54.54,0,0,1,0-1.08h3.2a4.74,4.74,0,0,1-.36-.92,4.59,4.59,0,0,1-.16-1.22h0V11A2.89,2.89,0,0,1,4.28,8.9a3.3,3.3,0,0,1,2.23-.71h0a5,5,0,0,1,.69,0c.22,0,.42.08.66.13h0l.28.08a1.88,1.88,0,0,0,.54.1,1.73,1.73,0,0,0,.41-.08h0l.1,0h0l.36-.09L10,8.28a3.69,3.69,0,0,1,.53-.07,4.78,4.78,0,0,1,.53,0h0a3.35,3.35,0,0,1,2.2.74,2.71,2.71,0,0,1,.91,2v3.18A4.6,4.6,0,0,1,14,15.35a4.74,4.74,0,0,1-.36.92h3.83a3.58,3.58,0,0,0,.44-1.74h0V11h0a2.86,2.86,0,0,1,.86-2.13,3,3,0,0,1,2.09-.68h0a6.23,6.23,0,0,1,.76,0,6.54,6.54,0,0,1,.75.13l.29.08a2.28,2.28,0,0,0,.53.11,2.35,2.35,0,0,0,.41-.09h0l.11,0h0l.35-.09.37-.07L25,8.21a4.89,4.89,0,0,1,.54,0h0a3.35,3.35,0,0,1,2.2.74,2.75,2.75,0,0,1,.91,2v3.58a5,5,0,0,1-.16,1.22,5.34,5.34,0,0,1-.18.52h3a.54.54,0,1,1,0,1.08Z"/></clipPath><clipPath id="clip-path-2" transform="translate(4.83 4.83)"><rect class="cls-2" x="-5" y="-5" width="42" height="42"/></clipPath><clipPath id="clip-path-3" transform="translate(4.83 4.83)"><rect class="cls-2" width="32" height="32"/></clipPath></defs><title>Placowka2</title><g class="cls-3"><g class="cls-4"><g class="cls-5"><g class="cls-6"><rect width="41.67" height="41.67"/></g></g></g></g></svg>