<?xml version="1.0" encoding="utf-8"?>
<!-- Generator: Adobe Illustrator 23.0.1, SVG Export Plug-In . SVG Version: 6.00 Build 0)  -->
<svg version="1.1" id="Santander" xmlns="http://www.w3.org/2000/svg" xmlns:xlink="http://www.w3.org/1999/xlink" x="0px" y="0px"
	 viewBox="0 0 124 22" style="enable-background:new 0 0 124 22;" xml:space="preserve">
<style type="text/css">
	.st0{fill-rule:evenodd;clip-rule:evenodd;fill:#FFFFFF;}
</style>
<path class="st0" d="M124,9.8c0,0.7-0.1,1.6-0.2,2c-0.6-0.1-1.1-0.1-1.8-0.1c-0.6,0-1.2,0-1.7,0.1V21h-2.4V10.3c1-0.3,2.7-0.6,4-0.6
	C122.7,9.7,123.5,9.7,124,9.8 M108.2,14.5h5.3c0-1.8-0.9-2.8-2.6-2.8C109.2,11.7,108.4,12.6,108.2,14.5 M115.7,16.4h-7.5
	c0.3,1.9,1.4,2.8,3.5,2.8c1.3,0,2.6-0.3,3.8-0.8c-0.1,0.6-0.2,1.4-0.4,2.1c-1.1,0.5-2.2,0.7-3.5,0.7c-3.9,0-5.9-2.2-5.9-5.9
	c0-3.2,1.5-5.7,5.2-5.7c3.4,0,4.8,2.2,4.8,4.9C115.9,15.3,115.8,15.8,115.7,16.4 M101.5,18.5v-6.6c-0.6-0.1-1.3-0.2-1.9-0.2
	c-2.3,0-3.5,1.5-3.5,3.9c0,2.2,0.9,3.7,3,3.7C100.1,19.4,100.9,19,101.5,18.5 M103.9,6v15h-2.2l-0.1-1.4c-0.6,1-1.5,1.6-3.1,1.6
	c-2.8,0-4.7-2.1-4.7-5.7c0-3.8,2-5.9,6-5.9c0.6,0,1.2,0.1,1.8,0.2V6.3C102.3,6.1,103.1,6,103.9,6 M91.9,13.8V21h-2.4v-6.8
	c0-1.7-0.6-2.5-2.9-2.5c-0.6,0-1.2,0.1-1.9,0.2V21h-2.4V10.3c1.5-0.4,3.2-0.6,4.3-0.6C90.6,9.7,91.9,11.2,91.9,13.8 M77.5,18.6v-6.7
	c-0.5-0.1-1-0.1-1.7-0.1c-2.4,0-3.6,1.5-3.6,3.9c0,2.2,0.9,3.7,3,3.7C76.1,19.4,76.9,19.1,77.5,18.6 M79.8,10.3V21h-2.2l-0.1-1.3
	c-0.6,0.9-1.5,1.5-3,1.5c-2.8,0-4.7-2.1-4.7-5.7c0-3.8,2-5.9,6-5.9C77.3,9.7,78.6,9.9,79.8,10.3 M67.2,19.3c0.7,0,1.3-0.1,1.8-0.3
	c-0.1,0.6-0.2,1.4-0.3,2c-0.6,0.3-1.3,0.3-2,0.3c-2.3,0-3.8-1.1-3.8-3.7V6.3C63.7,6.1,64.6,6,65.4,6v4.1h3.7c0,0.7-0.1,1.4-0.2,2
	h-3.5v5.3C65.4,18.7,66.1,19.3,67.2,19.3 M60.6,13.8V21h-2.4v-6.8c0-1.7-0.6-2.5-2.9-2.5c-0.6,0-1.2,0.1-1.9,0.2V21h-2.4V10.3
	c1.5-0.4,3.2-0.6,4.3-0.6C59.4,9.7,60.6,11.2,60.6,13.8 M46.2,18.6v-6.7c-0.5-0.1-1-0.1-1.7-0.1c-2.4,0-3.6,1.5-3.6,3.9
	c0,2.2,0.9,3.7,3,3.7C44.8,19.4,45.6,19.1,46.2,18.6 M48.6,10.3V21h-2.2l-0.1-1.3c-0.6,0.9-1.5,1.5-3,1.5c-2.8,0-4.7-2.1-4.7-5.7
	c0-3.8,2-5.9,6-5.9C46.1,9.7,47.3,9.9,48.6,10.3 M27.1,20.6c0-0.9,0.2-1.5,0.4-2.2c1.2,0.6,2.7,0.8,3.9,0.8c2,0,3.1-0.6,3.1-1.9
	c0-1.2-0.8-1.8-2.8-2.7l-1.1-0.5c-2-0.9-3.4-2-3.4-4.3c0-2.4,1.7-4,5.2-4c1.4,0,2.7,0.2,3.9,0.6c-0.1,0.9-0.2,1.5-0.4,2.1
	C34.8,8.2,33.4,8,32.4,8c-1.9,0-2.7,0.7-2.7,1.9c0,1.1,0.8,1.8,2.3,2.4l1.2,0.5c2.7,1.2,3.9,2.4,3.9,4.5c0,2.5-1.9,4.2-5.5,4.2
	C29.8,21.4,28.3,21.1,27.1,20.6 M16.4,10c0-0.8-0.3-1.6-0.7-2.3l-3.6-6.2c-0.3-0.5-0.5-1-0.6-1.5l-0.1,0.3c-0.9,1.5-0.9,3.4,0,5
	l2.9,5c0.9,1.5,0.9,3.4,0,5l-0.1,0.3c-0.1-0.5-0.3-1-0.6-1.5l-2.6-4.5L9.3,6.5C9,6,8.8,5.5,8.7,5L8.6,5.2c-0.9,1.5-0.9,3.4,0,4.9
	l0,0l2.9,5c0.9,1.5,0.9,3.4,0,5l-0.1,0.3c-0.1-0.5-0.3-1-0.6-1.5l-3.6-6.2c-0.5-0.8-0.7-1.8-0.7-2.7C2.6,11,0,13.1,0,15.6
	c0,3.4,5.1,6.2,11.4,6.2c6.3,0,11.4-2.8,11.4-6.2C22.8,13.1,20.2,11,16.4,10"/>
</svg>
