<?xml version="1.0" encoding="utf-8"?>
<!-- Generator: Adobe Illustrator 23.0.1, SVG Export Plug-In . SVG Version: 6.00 Build 0)  -->
<svg version="1.1" id="Warstwa_1" xmlns="http://www.w3.org/2000/svg" xmlns:xlink="http://www.w3.org/1999/xlink" x="0px" y="0px"
	 viewBox="0 0 203 70" style="enable-background:new 0 0 203 70;" xml:space="preserve">
<style type="text/css">
	.st0{fill-rule:evenodd;clip-rule:evenodd;fill:#EC0000;}
	.st1{filter:url(#Adobe_OpacityMaskFilter);}
	.st2{fill-rule:evenodd;clip-rule:evenodd;fill:#FFFFFF;}
	.st3{mask:url(#red-b_1_);fill-rule:evenodd;clip-rule:evenodd;fill:#FFFFFF;}
</style>
<rect y="0" class="st0" width="185" height="70"/>
<defs>
	<filter id="Adobe_OpacityMaskFilter" filterUnits="userSpaceOnUse" x="30" y="20" width="128.5" height="22.5">
		<feColorMatrix  type="matrix" values="1 0 0 0 0  0 1 0 0 0  0 0 1 0 0  0 0 0 1 0"/>
	</filter>
</defs>
<mask maskUnits="userSpaceOnUse" x="30" y="20" width="128.5" height="22.5" id="red-b_1_">
	<g class="st1">
		<rect id="red-a_1_" y="0" class="st2" width="185" height="70"/>
	</g>
</mask>
<path class="st3" d="M158.5,30.1c0,0.7-0.1,1.6-0.2,2.1c-0.6-0.1-1.2-0.1-1.8-0.1c-0.6,0-1.2,0-1.8,0.1v9.5h-2.4V30.7
	c1-0.4,2.8-0.6,4.2-0.6C157.1,30,158,30.1,158.5,30.1 M142.1,35h5.5c0-1.8-1-2.9-2.7-2.9C143.2,32.1,142.3,33.1,142.1,35 M149.9,37
	h-7.8c0.3,2,1.5,2.9,3.6,2.9c1.3,0,2.7-0.3,3.9-0.8c-0.1,0.6-0.2,1.5-0.4,2.2c-1.1,0.5-2.3,0.7-3.6,0.7c-4.1,0-6.1-2.3-6.1-6.1
	c0-3.3,1.5-5.9,5.4-5.9c3.5,0,5,2.3,5,5.1C150.1,35.8,150,36.4,149.9,37 M135.2,39.2v-6.9c-0.6-0.1-1.3-0.2-2-0.2
	c-2.4,0-3.6,1.5-3.6,4.1c0,2.3,0.9,3.9,3.1,3.9C133.8,40.1,134.6,39.7,135.2,39.2 M137.7,26.2v15.6h-2.2l-0.1-1.4
	c-0.6,1-1.6,1.7-3.2,1.7c-2.9,0-4.9-2.1-4.9-5.9c0-3.9,2.1-6.1,6.2-6.1c0.6,0,1.2,0.1,1.8,0.2v-3.7C136,26.3,136.9,26.2,137.7,26.2
	 M125.3,34.3v7.5h-2.4v-7.1c0-1.8-0.6-2.6-3-2.6c-0.6,0-1.3,0.1-1.9,0.2v9.5h-2.4V30.7c1.6-0.4,3.3-0.6,4.4-0.6
	C123.9,30,125.3,31.6,125.3,34.3 M110.3,39.3v-7c-0.5-0.1-1.1-0.1-1.8-0.1c-2.5,0-3.7,1.6-3.7,4.1c0,2.3,0.9,3.9,3.1,3.9
	C108.9,40.1,109.6,39.7,110.3,39.3 M112.7,30.7v11.1h-2.2l-0.1-1.3c-0.6,1-1.6,1.6-3.1,1.6c-2.9,0-4.9-2.1-4.9-5.9
	c0-3.9,2.1-6.1,6.2-6.1C110.1,30,111.4,30.2,112.7,30.7 M99.6,40c0.7,0,1.4-0.1,1.9-0.3c-0.1,0.7-0.2,1.4-0.3,2.1
	c-0.7,0.3-1.4,0.4-2.1,0.4c-2.4,0-3.9-1.1-3.9-3.8V26.6c0.8-0.2,1.7-0.4,2.4-0.4v4.2h3.9c0,0.8-0.1,1.4-0.2,2.1h-3.6V38
	C97.7,39.4,98.4,40,99.6,40 M92.8,34.3v7.5h-2.4v-7.1c0-1.8-0.6-2.6-3-2.6c-0.6,0-1.3,0.1-1.9,0.2v9.5H83V30.7
	c1.6-0.4,3.3-0.6,4.4-0.6C91.5,30,92.8,31.6,92.8,34.3 M77.9,39.3v-7c-0.5-0.1-1.1-0.1-1.8-0.1c-2.5,0-3.7,1.6-3.7,4.1
	c0,2.3,0.9,3.9,3.1,3.9C76.5,40.1,77.2,39.7,77.9,39.3 M80.3,30.7v11.1h-2.2L78,40.5c-0.6,1-1.6,1.6-3.1,1.6c-2.9,0-4.9-2.1-4.9-5.9
	c0-3.9,2.1-6.1,6.2-6.1C77.7,30,79,30.2,80.3,30.7 M58.1,41.3c0-0.9,0.2-1.5,0.4-2.2c1.2,0.6,2.8,0.9,4.1,0.9c2.1,0,3.2-0.7,3.2-2
	c0-1.3-0.8-1.9-2.9-2.8l-1.1-0.5c-2.1-0.9-3.5-2.1-3.5-4.5c0-2.5,1.8-4.2,5.4-4.2c1.4,0,2.8,0.2,4.1,0.6c-0.1,0.9-0.2,1.6-0.4,2.2
	c-1.2-0.4-2.6-0.6-3.6-0.6c-1.9,0-2.8,0.8-2.8,1.9c0,1.2,0.9,1.8,2.4,2.5l1.2,0.5c2.8,1.2,4,2.5,4,4.6c0,2.6-1.9,4.3-5.7,4.3
	C60.9,42.1,59.4,41.9,58.1,41.3 M47,30.3c0-0.8-0.3-1.6-0.7-2.3l-3.7-6.4c-0.3-0.5-0.5-1-0.6-1.6l-0.2,0.3c-0.9,1.6-0.9,3.6,0,5.1
	l3,5.1c0.9,1.6,0.9,3.6,0,5.1L44.6,36c-0.1-0.5-0.3-1.1-0.6-1.6l-2.7-4.7l-1.7-3c-0.3-0.5-0.5-1-0.6-1.6l-0.2,0.3
	c-0.9,1.6-0.9,3.5,0,5.1l0,0l3,5.2c0.9,1.6,0.9,3.6,0,5.1l-0.2,0.3c-0.1-0.5-0.3-1.1-0.6-1.6l-3.7-6.4c-0.5-0.9-0.7-1.8-0.7-2.8
	c-4,1-6.7,3.2-6.7,5.8c0,3.5,5.3,6.4,11.8,6.4c6.5,0,11.8-2.9,11.8-6.4C53.7,33.6,50.9,31.4,47,30.3"/>
</svg>
