<?xml version="1.0" encoding="utf-8"?>
<!-- Generator: Adobe Illustrator 23.0.1, SVG Export Plug-In . SVG Version: 6.00 Build 0)  -->
<svg version="1.1" id="Warstwa_1" xmlns="http://www.w3.org/2000/svg" xmlns:xlink="http://www.w3.org/1999/xlink" x="0px" y="0px"
	 viewBox="0 0 203 70" style="enable-background:new 0 0 203 70;" xml:space="preserve">
<style type="text/css">
	.st0{fill-rule:evenodd;clip-rule:evenodd;fill:#EC0000;}
	.st1{filter:url(#Adobe_OpacityMaskFilter);}
	.st2{fill-rule:evenodd;clip-rule:evenodd;fill:#FFFFFF;}
	.st3{mask:url(#red-b_1_);fill-rule:evenodd;clip-rule:evenodd;fill:#FFFFFF;}
</style>
<rect y="8" class="st0" width="203" height="53.2"/>
<defs>
	<filter id="Adobe_OpacityMaskFilter" filterUnits="userSpaceOnUse" x="15.7" y="16.5" width="171" height="30">
		<feColorMatrix  type="matrix" values="1 0 0 0 0  0 1 0 0 0  0 0 1 0 0  0 0 0 1 0"/>
	</filter>
</defs>
<mask maskUnits="userSpaceOnUse" x="15.7" y="16.5" width="171" height="30" id="red-b_1_">
	<g class="st1">
		<rect id="red-a_1_" y="8" class="st2" width="203" height="53.2"/>
	</g>
</mask>
<path class="st3" d="M186.7,29.9c0,1-0.1,2.2-0.3,2.8c-0.8-0.1-1.5-0.1-2.5-0.1c-0.8,0-1.6,0.1-2.4,0.2v12.7h-3.3V30.6
	c1.4-0.5,3.7-0.8,5.6-0.8C184.8,29.8,186,29.8,186.7,29.9 M164.8,36.4h7.3c0-2.4-1.3-3.8-3.5-3.8C166.3,32.5,165.1,33.9,164.8,36.4
	 M175.3,39.1h-10.4c0.4,2.6,2,3.9,4.8,3.9c1.8,0,3.6-0.4,5.2-1.1c-0.1,0.9-0.3,2-0.5,3c-1.5,0.7-3,0.9-4.8,0.9c-5.4,0-8.1-3-8.1-8.1
	c0-4.4,2-7.9,7.2-7.9c4.6,0,6.7,3,6.7,6.8C175.5,37.5,175.4,38.3,175.3,39.1 M155.7,42v-9.1c-0.9-0.2-1.7-0.3-2.6-0.3
	c-3.2,0-4.8,2-4.8,5.4c0,3,1.2,5.2,4.1,5.2C153.8,43.1,154.8,42.7,155.7,42 M158.9,24.7v20.7h-3l-0.2-1.9c-0.8,1.4-2.1,2.3-4.2,2.3
	c-3.9,0-6.5-2.8-6.5-7.8c0-5.2,2.8-8.2,8.2-8.2c0.9,0,1.7,0.1,2.4,0.2v-4.9C156.7,24.8,157.9,24.7,158.9,24.7 M142.4,35.5v9.9h-3.3
	v-9.4c0-2.3-0.8-3.5-4-3.5c-0.8,0-1.7,0.1-2.6,0.2v12.6h-3.3V30.6c2.1-0.5,4.3-0.8,5.9-0.8C140.7,29.8,142.4,31.9,142.4,35.5
	 M122.5,42.1v-9.3c-0.7-0.1-1.4-0.2-2.3-0.2c-3.4,0-4.9,2.1-4.9,5.4c0,3,1.2,5.2,4.1,5.2C120.6,43.1,121.7,42.7,122.5,42.1
	 M125.8,30.6v14.8h-3l-0.2-1.8c-0.8,1.3-2.1,2.1-4.2,2.1c-3.9,0-6.5-2.8-6.5-7.8c0-5.2,2.8-8.2,8.2-8.2
	C122.3,29.8,124.1,30.1,125.8,30.6 M108.3,43c0.9,0,1.8-0.2,2.5-0.4c-0.1,0.9-0.2,1.9-0.4,2.8c-0.9,0.4-1.8,0.5-2.7,0.5
	c-3.2,0-5.2-1.5-5.2-5.1V25.2c1-0.3,2.2-0.5,3.3-0.5v5.6h5.1c-0.1,1-0.1,1.9-0.3,2.8h-4.8v7.3C105.8,42.3,106.8,43,108.3,43
	 M99.3,35.5v9.9h-3.3v-9.4c0-2.3-0.8-3.5-4-3.5c-0.8,0-1.7,0.1-2.6,0.2v12.6h-3.3V30.6c2.1-0.5,4.3-0.8,5.9-0.8
	C97.6,29.8,99.3,31.9,99.3,35.5 M79.4,42.1v-9.3c-0.7-0.1-1.4-0.2-2.3-0.2c-3.4,0-4.9,2.1-4.9,5.4c0,3,1.2,5.2,4.1,5.2
	C77.5,43.1,78.6,42.7,79.4,42.1 M82.7,30.6v14.8h-3l-0.2-1.8c-0.8,1.3-2.1,2.1-4.2,2.1c-3.9,0-6.5-2.8-6.5-7.8
	c0-5.2,2.8-8.2,8.2-8.2C79.2,29.8,81,30.1,82.7,30.6 M53.1,44.8c0.1-1.2,0.2-2,0.6-3c1.7,0.8,3.8,1.2,5.4,1.2c2.7,0,4.3-0.9,4.3-2.6
	c0-1.7-1.1-2.5-3.9-3.7L58,35.9c-2.8-1.2-4.7-2.8-4.7-5.9c0-3.4,2.3-5.5,7.1-5.5c1.9,0,3.7,0.3,5.4,0.9c-0.1,1.2-0.3,2.1-0.6,3
	c-1.6-0.6-3.5-0.9-4.8-0.9c-2.6,0-3.8,1-3.8,2.6c0,1.5,1.2,2.4,3.2,3.3l1.6,0.7c3.8,1.6,5.3,3.3,5.3,6.2c0,3.4-2.6,5.7-7.6,5.7
	C56.8,45.9,54.8,45.6,53.1,44.8 M38.3,30.2c0-1.1-0.3-2.2-0.9-3.1l-4.9-8.6c-0.4-0.7-0.6-1.4-0.8-2.1l-0.2,0.4
	c-1.2,2.1-1.2,4.7,0,6.8l3.9,6.8c1.2,2.1,1.2,4.7,0,6.8l-0.2,0.4c-0.1-0.7-0.4-1.4-0.8-2.1l-3.6-6.3l-2.3-4
	c-0.4-0.7-0.6-1.4-0.8-2.1l-0.2,0.4c-1.2,2.1-1.2,4.7,0,6.8l0,0l4,6.9c1.2,2.1,1.2,4.7,0,6.8l-0.2,0.4c-0.1-0.7-0.4-1.4-0.8-2.1
	l-4.9-8.5c-0.7-1.1-1-2.4-0.9-3.7c-5.3,1.4-8.9,4.3-8.9,7.7c0,4.7,7,8.5,15.7,8.5c8.7,0,15.7-3.8,15.7-8.5
	C47.2,34.5,43.5,31.6,38.3,30.2"/>
</svg>
